<?xml version="1.0" encoding="iso-8859-1"?>
<!-- Generator: Adobe Illustrator 18.0.0, SVG Export Plug-In . SVG Version: 6.00 Build 0)  -->
<!DOCTYPE svg PUBLIC "-//W3C//DTD SVG 1.1//EN" "http://www.w3.org/Graphics/SVG/1.1/DTD/svg11.dtd">
<svg version="1.1" id="Capa_1" xmlns="http://www.w3.org/2000/svg" xmlns:xlink="http://www.w3.org/1999/xlink" x="0px" y="0px"
	 viewBox="0 0 299.193 299.193" style="enable-background:new 0 0 299.193 299.193;" xml:space="preserve">
<g>
	<g>
		<polygon style="fill:none;" points="161.681,113.092 175.961,113.092 180.934,80.335 170.065,80.335 		"/>
		<polygon style="fill:none;" points="128.606,199.701 131.36,201.27 131.55,200.936 		"/>
		<path style="fill:none;" d="M72.418,107.145c-0.881-2.608,0.52-5.434,3.127-6.314l44.977-15.182
			c1.252-0.423,2.621-0.331,3.805,0.256c1.184,0.587,2.087,1.62,2.51,2.872l8.208,24.317h16.35l8.384-32.757H51.303l4.973,32.757
			h18.149L72.418,107.145z"/>
		<path style="fill:#FDBD1D;" d="M140.811,130.175l1.207,3.576c0.881,2.607-0.52,5.434-3.127,6.314l-11.976,4.043l32.269,18.379
			c1.148,0.654,1.989,1.738,2.339,3.012c0.35,1.274,0.178,2.636-0.476,3.784l-23.495,41.248c-0.677,1.189-1.772,1.99-2.995,2.33
			l15.765,17.887c0.874,0.991,1.318,2.289,1.235,3.608c-0.083,1.319-0.687,2.551-1.678,3.425l-35.613,31.387
			c-0.947,0.834-2.122,1.244-3.292,1.244c-1.381,0-2.755-0.571-3.74-1.688l-25.722-29.184l7.544,49.687h60.161l25.23-166.17
			l-1.081,7.118H140.811z"/>
		<path style="fill:#FDBD1D;" d="M64.908,130.175l14.186,93.433l-2.803,2.471l30.813-27.157l-17.595-10.022
			c-2.391-1.362-3.225-4.404-1.864-6.795l17.446-30.629l-11.177,3.772c-0.519,0.175-1.057,0.262-1.594,0.262
			c-0.76,0-1.517-0.174-2.211-0.518c-1.184-0.587-2.087-1.62-2.51-2.872l-9.81-29.064l2.402,7.118H64.908z"/>
		<path style="fill:#B74B00;" d="M256.423,34.433L213.58,6.257c-2.299-1.511-5.388-0.874-6.901,1.425
			c-1.512,2.299-0.874,5.389,1.425,6.901l42.843,28.177c0.844,0.555,1.794,0.82,2.733,0.82c1.621,0,3.211-0.79,4.168-2.245
			C259.36,39.035,258.722,35.946,256.423,34.433z"/>
		<path style="fill:#B74B00;" d="M186.73,70.37h-14.115l15.027-58.715c0.683-2.666-0.926-5.38-3.592-6.062
			c-2.668-0.684-5.379,0.926-6.062,3.591L162.33,70.37H45.507c-1.452,0-2.832,0.633-3.779,1.734
			c-0.946,1.101-1.365,2.561-1.148,3.996l33.229,218.858c0.37,2.435,2.463,4.235,4.926,4.235h74.764c2.463,0,4.556-1.8,4.926-4.235
			L191.656,76.1c0.218-1.436-0.202-2.895-1.148-3.996C189.562,71.003,188.182,70.37,186.73,70.37z M51.303,80.335h108.475
			l-8.384,32.757h-16.35l-8.208-24.317c-0.423-1.252-1.326-2.285-2.51-2.872c-1.184-0.587-2.553-0.678-3.805-0.256l-44.977,15.182
			c-2.607,0.88-4.007,3.707-3.127,6.314l2.007,5.947H56.277L51.303,80.335z M114.755,205.463l24.798,28.137l-28.137,24.798
			l-24.799-28.137L114.755,205.463z M128.606,199.701L98.77,182.708l18.562-32.589l32.59,18.563l-18.372,32.255l-0.191,0.334
			L128.606,199.701z M127.891,123.057l3.092,9.161l-35.535,11.995l-7.141-21.156H127.891z M84.943,113.092l-1.49-4.414
			l35.535-11.995l5.539,16.409H84.943z M149.218,289.227H89.057H83.02l-25.23-166.17h20l9.81,29.064
			c0.423,1.252,1.326,2.285,2.51,2.872c0.694,0.344,1.451,0.518,2.211,0.518c0.537,0,1.075-0.087,1.594-0.262l11.177-3.772
			l-17.446,30.629c-1.362,2.391-0.528,5.434,1.864,6.795l17.595,10.022L76.291,226.08c-0.992,0.874-1.595,2.106-1.679,3.424
			c-0.083,1.319,0.361,2.617,1.235,3.608l5.666,6.428l25.722,29.184c0.984,1.117,2.359,1.688,3.74,1.688
			c1.17,0,2.345-0.41,3.292-1.244l35.613-31.387c0.992-0.874,1.595-2.105,1.678-3.425c0.083-1.319-0.361-2.616-1.235-3.608
			l-15.765-17.887c1.223-0.34,2.318-1.141,2.995-2.33l23.495-41.248c0.654-1.148,0.826-2.509,0.476-3.784
			c-0.35-1.274-1.191-2.358-2.339-3.012l-32.269-18.379l11.976-4.043c2.607-0.88,4.007-3.707,3.127-6.314l-1.207-3.576l-2.402-7.118
			h36.039L149.218,289.227z M175.961,113.092h-14.28l8.384-32.757h10.869L175.961,113.092z"/>
		<path style="fill:#B74B00;" d="M197.109,0c-2.752,0-4.983,2.231-4.983,4.983v7.142c0,2.752,2.231,4.982,4.983,4.982
			c2.752,0,4.983-2.231,4.983-4.982V4.983C202.091,2.231,199.861,0,197.109,0z"/>
		<path style="fill:#B74B00;" d="M135.098,185.345l6.4-10.878c1.396-2.372,0.604-5.425-1.768-6.821
			c-2.372-1.397-5.425-0.604-6.821,1.768l-6.4,10.878c-1.396,2.372-0.604,5.426,1.768,6.821c0.794,0.467,1.663,0.689,2.522,0.689
			C132.507,187.802,134.17,186.923,135.098,185.345z"/>
		<path style="fill:#B74B00;" d="M113.936,237.842l-8.273-9.532c-1.803-2.078-4.951-2.3-7.028-0.497
			c-2.078,1.804-2.301,4.951-0.497,7.029l8.273,9.532c0.985,1.135,2.371,1.717,3.765,1.717c1.158,0,2.321-0.401,3.264-1.22
			C115.517,243.067,115.739,239.92,113.936,237.842z"/>
	</g>
</g>
<g>
</g>
<g>
</g>
<g>
</g>
<g>
</g>
<g>
</g>
<g>
</g>
<g>
</g>
<g>
</g>
<g>
</g>
<g>
</g>
<g>
</g>
<g>
</g>
<g>
</g>
<g>
</g>
<g>
</g>
</svg>
